<?xml version="1.0" standalone="no"?>
<!DOCTYPE svg PUBLIC "-//W3C//DTD SVG 20010904//EN"
 "http://www.w3.org/TR/2001/REC-SVG-20010904/DTD/svg10.dtd">
<svg version="1.0" xmlns="http://www.w3.org/2000/svg"
 width="1338.000000pt" height="1203.000000pt" viewBox="0 0 1338.000000 1203.000000"
 preserveAspectRatio="xMidYMid meet">

<g transform="translate(0.000000,1203.000000) scale(0.100000,-0.100000)"
fill="#000000" stroke="none">
<path d="M5179 9553 c-22 -49 -57 -122 -76 -163 -19 -41 -48 -102 -63 -135
-16 -33 -38 -85 -50 -115 -12 -30 -34 -77 -49 -105 -15 -28 -40 -82 -55 -120
-16 -39 -34 -77 -41 -85 -7 -8 -16 -26 -20 -40 -12 -39 -120 -275 -175 -382
-28 -54 -50 -102 -50 -107 0 -5 -25 -62 -56 -127 -31 -66 -72 -151 -90 -190
-19 -39 -34 -74 -34 -77 0 -4 -26 -62 -59 -129 -76 -160 -141 -299 -141 -303
0 -4 -68 -152 -125 -270 -76 -159 -155 -334 -155 -343 0 -5 -10 -24 -22 -43
-13 -19 -29 -52 -37 -74 -8 -22 -36 -87 -63 -145 -56 -119 -93 -198 -133 -285
-15 -33 -45 -97 -66 -142 -22 -45 -39 -85 -39 -88 0 -4 -24 -55 -53 -113 -29
-59 -63 -132 -76 -162 -13 -30 -48 -106 -78 -169 -29 -62 -53 -115 -53 -117 0
-1 -20 -46 -45 -99 -49 -105 -167 -359 -192 -415 -9 -19 -45 -95 -79 -167 -35
-73 -64 -135 -64 -138 0 -3 -20 -47 -44 -98 -24 -51 -65 -139 -91 -197 -26
-58 -72 -156 -101 -218 -30 -63 -54 -116 -54 -120 0 -3 -18 -42 -39 -87 -21
-44 -65 -136 -97 -205 -31 -69 -76 -165 -100 -215 -103 -218 -134 -285 -134
-290 0 -4 -16 -38 -139 -298 -28 -59 -51 -110 -51 -112 0 -3 -21 -49 -46 -103
-44 -92 -62 -133 -98 -212 -29 -66 -83 -245 -99 -331 -24 -125 -23 -330 3
-450 11 -52 25 -114 30 -139 20 -100 106 -305 170 -405 85 -135 222 -280 356
-378 51 -37 96 -67 101 -67 5 0 23 -10 40 -22 58 -43 196 -106 298 -136 118
-34 427 -52 554 -32 199 31 386 95 556 190 33 18 71 42 85 52 14 10 61 45 105
78 111 82 189 159 275 270 19 25 45 56 58 70 19 22 152 281 240 470 16 36 51
110 77 165 89 187 106 228 97 237 -4 4 -325 9 -712 10 -809 3 -735 -8 -680
106 84 176 160 340 160 346 0 2 22 51 48 108 77 162 100 212 179 388 41 91 86
188 99 217 13 28 24 55 24 58 0 3 24 56 54 118 29 62 66 141 81 176 14 35 33
73 40 85 8 12 25 52 40 90 14 38 30 74 35 81 5 6 24 47 43 90 19 44 50 114 69
155 87 187 128 277 128 283 0 7 51 118 130 282 21 44 49 103 61 130 12 28 37
83 55 123 19 40 34 74 34 76 0 3 39 88 115 251 13 28 33 73 45 100 12 28 42
91 66 142 24 50 44 95 44 98 0 4 21 51 46 104 26 53 53 114 60 136 8 21 26 58
39 81 13 23 34 65 45 95 12 30 36 83 54 119 19 36 37 76 41 90 4 14 22 54 40
90 17 36 40 88 50 115 11 28 31 73 46 101 15 28 37 75 50 105 12 30 39 90 60
134 20 44 47 103 59 130 61 136 85 187 126 271 24 50 44 94 44 98 0 5 18 47
41 94 44 95 84 180 105 227 7 17 33 73 57 125 24 52 59 129 77 170 18 41 43
98 56 125 13 28 41 91 64 140 22 50 47 101 55 115 l14 25 867 3 c657 1 870 -1
881 -10 12 -10 61 -106 116 -228 8 -19 31 -70 51 -112 20 -42 36 -80 36 -83 0
-3 22 -52 49 -108 26 -56 69 -147 94 -202 25 -55 64 -140 87 -190 23 -49 50
-111 60 -136 10 -25 27 -61 37 -80 11 -19 34 -70 52 -114 19 -43 39 -88 46
-100 7 -11 25 -49 40 -85 15 -36 37 -87 50 -115 203 -440 242 -527 250 -555 4
-14 15 -36 25 -50 9 -14 25 -47 35 -75 10 -27 40 -93 67 -146 26 -54 48 -100
48 -104 0 -3 15 -39 34 -78 19 -40 44 -94 56 -122 13 -27 38 -83 56 -123 19
-41 34 -75 34 -77 0 -2 20 -46 44 -97 103 -219 136 -290 136 -295 0 -2 22 -51
50 -109 28 -58 50 -106 50 -108 0 -2 23 -52 50 -110 28 -58 50 -109 50 -112 0
-3 15 -36 34 -73 18 -37 37 -78 41 -91 4 -14 25 -61 46 -105 82 -174 159 -344
159 -350 0 -3 23 -52 50 -108 28 -56 50 -109 50 -118 0 -9 6 -22 14 -28 8 -7
24 -37 36 -69 13 -31 43 -100 67 -152 25 -52 48 -104 53 -115 4 -11 26 -58 48
-105 22 -47 56 -123 77 -170 21 -47 62 -135 91 -197 30 -62 54 -115 54 -118 0
-4 23 -54 50 -112 28 -58 50 -107 50 -110 0 -2 13 -32 29 -66 16 -34 59 -126
96 -205 36 -79 65 -151 63 -160 -3 -16 -56 -17 -710 -22 -388 -3 -709 -8 -712
-11 -6 -6 9 -40 99 -234 106 -228 255 -532 288 -586 94 -153 272 -338 408
-425 27 -17 57 -38 66 -46 33 -29 217 -120 313 -155 171 -63 315 -88 505 -88
244 1 300 10 515 90 25 9 69 31 98 48 29 18 70 41 91 52 101 53 212 144 307
253 184 210 292 430 342 699 39 206 46 277 34 350 -6 38 -14 88 -17 113 -10
73 -26 139 -57 235 -35 105 -60 163 -144 342 -24 51 -44 96 -44 99 0 3 -24 56
-54 117 -30 62 -70 148 -91 192 -20 44 -53 116 -74 160 -21 44 -46 98 -56 120
-9 22 -32 72 -50 110 -89 188 -135 288 -135 291 0 2 -15 36 -34 76 -56 119
-111 239 -141 303 -15 33 -47 102 -71 153 -24 51 -44 95 -44 98 0 2 -17 41
-39 87 -21 45 -67 143 -101 217 -34 74 -79 171 -100 215 -21 44 -47 100 -58
125 -11 25 -38 83 -60 130 -86 184 -112 241 -112 244 0 2 -30 66 -66 142 -36
77 -74 157 -84 179 -10 22 -35 76 -55 120 -36 76 -95 203 -134 290 -89 195
-130 284 -172 372 -27 56 -49 105 -49 109 0 4 -23 55 -51 113 -67 140 -110
231 -119 256 -4 11 -28 63 -53 115 -25 52 -56 120 -70 150 -27 59 -66 144
-129 280 -21 47 -43 94 -48 105 -5 11 -33 72 -63 135 -30 63 -62 133 -72 155
-10 22 -42 91 -71 153 -30 62 -54 114 -54 117 0 3 -39 87 -146 312 -24 51 -44
96 -44 100 0 4 -17 43 -39 88 -81 169 -161 341 -161 348 0 4 -23 56 -51 115
-113 235 -129 270 -129 281 0 5 -12 31 -27 56 l-28 45 -1932 0 -1932 0 -42
-87z"/>
<path d="M7070 4684 c-148 -11 -403 -60 -435 -84 -5 -4 -37 -15 -70 -24 -33
-10 -73 -24 -90 -33 -118 -61 -188 -102 -239 -137 -32 -23 -68 -48 -80 -56
-143 -98 -374 -364 -458 -525 -19 -38 -45 -88 -56 -110 -29 -56 -86 -180 -112
-245 -12 -30 -35 -80 -50 -110 -15 -30 -55 -120 -90 -200 -34 -80 -70 -161
-80 -180 -10 -19 -28 -59 -39 -88 -12 -29 -41 -95 -66 -146 -25 -52 -45 -97
-45 -100 0 -4 -18 -46 -41 -94 -22 -48 -44 -96 -49 -107 -5 -11 -23 -51 -40
-90 -60 -134 -81 -191 -73 -199 8 -8 4388 -8 4396 0 8 9 -27 101 -84 221 -27
57 -49 108 -49 114 0 6 -11 29 -24 52 -13 23 -32 65 -42 92 -10 28 -35 84 -56
125 -21 41 -38 78 -38 82 0 4 -13 36 -29 70 -79 173 -161 358 -161 362 0 2
-25 56 -55 120 -30 64 -55 118 -55 120 0 2 -17 42 -39 88 -21 45 -40 88 -42
93 -2 6 -28 55 -58 110 -109 201 -312 435 -476 550 -38 26 -79 56 -90 65 -16
14 -172 100 -234 129 -33 16 -238 80 -301 95 -124 29 -339 48 -450 40z"/>
</g>
</svg>
