<svg width="58" height="50" viewBox="0 0 58 50" fill="none" xmlns="http://www.w3.org/2000/svg">
<path d="M57.348 10.266C53.808 11.564 51.094 13.57 49.206 16.284C47.436 18.998 46.551 22.243 46.551 26.019H57.348V49.914H35.223V26.019C35.223 22.715 35.813 19.647 36.993 16.815C38.173 13.983 39.766 11.505 41.772 9.38101C43.778 7.13901 46.079 5.25101 48.675 3.717C51.389 2.183 54.28 0.944002 57.348 0V10.266ZM22.125 10.266C18.585 11.564 15.871 13.57 13.983 16.284C12.213 18.998 11.328 22.243 11.328 26.019H22.125V49.914H0V26.019C0 22.715 0.59 19.647 1.77 16.815C2.95 13.983 4.543 11.505 6.549 9.38101C8.555 7.13901 10.856 5.25101 13.452 3.717C16.166 2.183 19.057 0.944002 22.125 0V10.266Z" fill="#0E0E0E"/>
</svg>
