<svg width="24" height="24" viewBox="0 0 24 24" fill="none" xmlns="http://www.w3.org/2000/svg">
<path fill-rule="evenodd" clip-rule="evenodd" d="M7.90909 4.63636C6.10161 4.63636 4.63636 6.10161 4.63636 7.90909V16.0909C4.63636 17.8984 6.10161 19.3636 7.90909 19.3636H16.0909C17.8984 19.3636 19.3636 17.8984 19.3636 16.0909V7.90909C19.3636 6.10161 17.8984 4.63636 16.0909 4.63636H7.90909ZM3 7.90909C3 5.19787 5.19787 3 7.90909 3H16.0909C18.8021 3 21 5.19787 21 7.90909V16.0909C21 18.8021 18.8021 21 16.0909 21H7.90909C5.19787 21 3 18.8021 3 16.0909V7.90909Z" fill="#0E0E0E"/>
<path fill-rule="evenodd" clip-rule="evenodd" d="M12.3953 9.5367C11.8846 9.46097 11.363 9.5482 10.9048 9.78598C10.4465 10.0238 10.0749 10.4 9.84276 10.8612C9.61065 11.3223 9.52986 11.8449 9.61188 12.3546C9.6939 12.8644 9.93456 13.3353 10.2996 13.7003C10.6647 14.0654 11.1356 14.306 11.6453 14.3881C12.155 14.4701 12.6776 14.3893 13.1388 14.1572C13.5999 13.9251 13.9762 13.5534 14.214 13.0952C14.4517 12.6369 14.539 12.1153 14.4632 11.6047C14.386 11.0837 14.1433 10.6014 13.7709 10.2291C13.3985 9.85669 12.9162 9.61394 12.3953 9.5367ZM10.1511 8.33351C10.9149 7.9372 11.7842 7.79182 12.6353 7.91803C13.5035 8.04678 14.3073 8.45135 14.928 9.07198C15.5486 9.69262 15.9532 10.4964 16.0819 11.3646C16.2081 12.2158 16.0627 13.0851 15.6664 13.8488C15.2701 14.6126 14.6431 15.232 13.8745 15.6188C13.1059 16.0057 12.2349 16.1403 11.3853 16.0036C10.5358 15.8669 9.75098 15.4658 9.14254 14.8574C8.5341 14.249 8.133 13.4642 7.9963 12.6146C7.85959 11.7651 7.99425 10.8941 8.38111 10.1255C8.76796 9.35686 9.38733 8.72981 10.1511 8.33351Z" fill="#0E0E0E"/>
<path d="M16.5 7.5H16.5082" stroke="#0E0E0E" stroke-width="2" stroke-linecap="round" stroke-linejoin="round"/>
</svg>
