<svg width="24" height="24" viewBox="0 0 24 24" fill="white" xmlns="http://www.w3.org/2000/svg">
<path fill-rule="evenodd" clip-rule="evenodd" d="M12.1999 4C12.1999 4 12.2 4 12.2 4.91638L12.2 5.83276L12.1296 5.83286C12.0829 5.83296 12.0139 5.83317 11.9253 5.83357C11.7482 5.83439 11.493 5.83602 11.1816 5.83929C10.5584 5.84584 9.71183 5.85893 8.81655 5.88505C7.91978 5.91121 6.98161 5.95025 6.17293 6.00817C5.34407 6.06753 4.7282 6.14214 4.42137 6.22148C4.14259 6.30011 3.8896 6.44905 3.6876 6.65353C3.49055 6.85299 3.34878 7.09846 3.27553 7.36655C2.99597 8.90022 2.85926 10.4557 2.8671 12.0138L2.86715 12.0241C2.85715 13.5885 2.99283 15.1506 3.2726 16.6907C3.35345 16.9451 3.49664 17.1765 3.68988 17.3642C3.89232 17.561 4.14286 17.7033 4.41743 17.7775C4.72292 17.8572 5.34051 17.9322 6.17293 17.9918C6.98161 18.0497 7.91978 18.0888 8.81655 18.115C9.71183 18.1411 10.5584 18.1542 11.1816 18.1607C11.493 18.164 11.7482 18.1656 11.9253 18.1664C12.0139 18.1668 12.0829 18.167 12.1296 18.1671H12.2704C12.3171 18.167 12.3861 18.1668 12.4747 18.1664C12.6518 18.1656 12.907 18.164 13.2184 18.1607C13.8416 18.1542 14.6882 18.1411 15.5835 18.115C16.4802 18.0888 17.4184 18.0497 18.2271 17.9918C19.0559 17.9325 19.6718 17.8579 19.9786 17.7785C20.2574 17.6999 20.5104 17.5509 20.7124 17.3465C20.9094 17.147 21.0512 16.9016 21.1245 16.6335C21.4019 15.1114 21.5386 13.5679 21.5329 12.0216L21.5329 12.0126C21.5429 10.4427 21.4062 8.87522 21.1245 7.32991C21.0512 7.06181 20.9094 6.81634 20.7124 6.61687C20.5127 6.41474 20.2632 6.26688 19.9882 6.18756C19.6709 6.11427 19.0528 6.04672 18.2329 5.99311C17.4226 5.94012 16.4832 5.90444 15.5859 5.88053C14.6899 5.85667 13.8428 5.84471 13.2193 5.83873C12.9076 5.83574 12.6523 5.83425 12.475 5.8335L12.2706 5.83285L12.2 5.83276L12.2 4.91638C12.2 4 12.1999 4 12.1999 4L12.2744 4.0001C12.3225 4.00019 12.3929 4.00038 12.483 4.00076C12.6632 4.00152 12.922 4.00303 13.2375 4.00606C13.868 4.0121 14.7265 4.02421 15.6365 4.04845C16.5451 4.07265 17.5119 4.10914 18.357 4.1644C19.1779 4.21808 19.957 4.2934 20.4477 4.41104C20.4586 4.41366 20.4695 4.41648 20.4804 4.41949C21.0777 4.58544 21.62 4.90324 22.0522 5.3408C22.4845 5.77836 22.7915 6.32017 22.9422 6.91152C22.9473 6.93131 22.9516 6.95127 22.9553 6.97135C23.2613 8.63707 23.41 10.327 23.3995 12.0195C23.4053 13.6868 23.2566 15.3511 22.9553 16.9919C22.9517 17.012 22.9473 17.032 22.9422 17.0518C22.7915 17.6432 22.4845 18.185 22.0522 18.6225C21.62 19.0601 21.0777 19.3779 20.4804 19.5439L20.4674 19.5474C19.9694 19.6781 19.1835 19.761 18.3629 19.8197C17.5161 19.8804 16.548 19.9204 15.6389 19.9469C14.7283 19.9735 13.8692 19.9867 13.2384 19.9934C12.9227 19.9967 12.6637 19.9983 12.4834 19.9992C12.3932 19.9996 12.3227 19.9998 12.2746 19.9999L12.2004 20L12.1254 19.9999C12.0773 19.9998 12.0068 19.9996 11.9166 19.9992C11.7363 19.9983 11.4773 19.9967 11.1616 19.9934C10.5308 19.9867 9.67174 19.9735 8.76111 19.9469C7.85197 19.9204 6.88389 19.8804 6.03715 19.8197C5.21651 19.761 4.43064 19.6781 3.93259 19.5474L3.9274 19.546C3.34216 19.3888 2.80812 19.086 2.37686 18.6669C1.94561 18.2478 1.63172 17.7266 1.46554 17.1536C1.4571 17.1245 1.45014 17.0951 1.44467 17.0653C1.1387 15.3998 0.99002 13.7101 1.00052 12.0177C0.992387 10.338 1.14106 8.66111 1.44466 7.00804C1.44835 6.98795 1.45273 6.96798 1.45778 6.94817C1.60852 6.35683 1.91553 5.81501 2.34779 5.37746C2.78005 4.9399 3.32226 4.6221 3.91964 4.45615L3.93259 4.45265C4.43064 4.32186 5.21651 4.23904 6.03715 4.18026C6.88389 4.11962 7.85197 4.07962 8.76111 4.0531C9.67174 4.02653 10.5308 4.01327 11.1616 4.00664C11.4773 4.00332 11.7363 4.00166 11.9166 4.00083C12.0068 4.00042 12.0773 4.00021 12.1254 4.00011L12.1999 4Z" fill="#0E0E0E"/>
<path fill-rule="evenodd" clip-rule="evenodd" d="M9.63076 8.22974C9.91804 8.06566 10.2725 8.06395 10.5614 8.22527L15.9278 11.2218C16.2195 11.3847 16.3997 11.6889 16.3997 12.0184C16.3997 12.3479 16.2195 12.6521 15.9278 12.815L10.5614 15.8116C10.2725 15.9729 9.91804 15.9712 9.63076 15.8071C9.34348 15.643 9.16675 15.3413 9.16675 15.015V9.02185C9.16675 8.69552 9.34348 8.39382 9.63076 8.22974ZM11.0333 10.5972V13.4396L13.5785 12.0184L11.0333 10.5972Z" fill="#0E0E0E"/>
</svg>
